<?xml version="1.0" encoding="UTF-8"?>
<!-- Created with Inkscape (http://www.inkscape.org/) -->
<svg width="320" height="56.818" version="1.1" viewBox="0 0 300 53.267" xml:space="preserve" xmlns="http://www.w3.org/2000/svg" xmlns:cc="http://creativecommons.org/ns#" xmlns:dc="http://purl.org/dc/elements/1.1/" xmlns:rdf="http://www.w3.org/1999/02/22-rdf-syntax-ns#" xmlns:xlink="http://www.w3.org/1999/xlink"><metadata><rdf:RDF><cc:Work rdf:about=""><dc:format>image/svg+xml</dc:format><dc:type rdf:resource="http://purl.org/dc/dcmitype/StillImage"/><dc:title/></cc:Work></rdf:RDF></metadata><g transform="translate(-334.66 -575.92)"><text x="353.41437" y="610.43994" fill="#000000" font-family="sans-serif" letter-spacing="0px" word-spacing="0px" style="line-height:0.01%" xml:space="preserve"><tspan x="353.41437" y="610.43994"><tspan x="353.41437" y="610.43994" font-family="sans-serif" font-size="20px" style="line-height:1.25"> </tspan></tspan></text><g fill="#231f20">
<path d="m344.04 619.81v-34.495h2.2982l21.619 21.618v-21.618h6.8992v34.495h-2.5293l-21.389-21.387v21.387h-6.8989"/><path d="m418.56 619.81v-34.473l-25.344-0.0214v6.4398h18.444v7.3584h-10.508v6.4167h10.508v7.8416h-18.399v6.4381h25.298"/><path d="m513.43 585.32v6.4398h-11.498v28.055h-6.8991v-28.055h-11.498v-6.4398h29.895"/></g><g fill="#176fc1"><path d="m532.95 614.86c-3.3021-3.2881-4.954-7.4076-4.954-12.361 0.0157-4.8453 1.6709-8.9185 4.9672-12.223 3.2955-3.3046 7.3829-4.9563 12.259-4.9563 4.9192 0 9.1458 1.5326 12.671 4.6013l-4.5994 5.0353c-2.3478-1.8413-5.0352-2.7607-8.0713-2.7607-3.1 0.0149-5.5927 0.98086-7.4881 2.8986-1.8946 1.9154-2.8407 4.3689-2.8407 7.3564 0.0174 3.2062 0.97505 5.7508 2.8746 7.6381 1.9029 1.885 4.4031 2.8276 7.4964 2.8276 2.4869 0 4.3964-0.48994 5.7294-1.4721v-5.9096l-4.6011 0.0226v-6.4394h11.5v16.098c-3.5109 3.0678-7.7367 4.5981-12.671 4.5981-4.8761-0.0129-8.9669-1.6666-12.272-4.954"/><path d="m576.14 619.81h6.8782v-34.517h-6.8782z"/><path d="m619.92 586.47c1.7637 0.76696 3.4114 1.9164 4.9432 3.4522l-4.5969 4.5978c-1.5351-1.8419-3.679-2.7593-6.441-2.7593-2.7603 0-4.524 0.64973-5.2912 1.9529-0.76629 1.3038-0.76629 2.4173 0 3.3344 0.76712 0.92196 2.5308 1.6122 5.2912 2.0711 2.9111 0.30743 5.5596 1.2649 7.9346 2.8746 2.3751 1.6096 3.5664 4.179 3.5664 7.7028 0 2.7619-1.2716 5.1372-3.8091 7.1306-2.5366 1.994-5.4916 2.9885-8.8666 2.9885-3.2019 0-5.8785-0.45822-8.0216-1.3773-2.1489-0.92032-3.9872-2.1465-5.5231-3.6823l4.6002-4.5981c1.5326 1.8419 4.1388 2.9127 7.822 3.2195 3.066 0 4.978-0.65077 5.7344-1.9546 0.75967-1.3034 0.75967-2.6066 0-3.9113-0.75635-1.3003-2.6684-2.106-5.7344-2.4131-2.762-0.30743-5.2912-1.1491-7.59-2.5294-2.303-1.3795-3.4512-3.7566-3.4512-7.1289 0-3.0519 1.3072-5.5 3.9201-7.3478 2.6145-1.8487 5.3036-2.7713 8.0606-2.7713 3.2044 0 5.6913 0.38315 7.4525 1.1491"/></g><g><path d="m458.61 598.71 9.7754-13.386h-8.0962l-5.7468 7.8338 4.0676 5.552" fill="#231f20"/><path d="m456.32 601.84-12.122-16.524h-8.097l12.073 16.535-13.178 17.96h8.1881l13.135-17.971" fill="#176fc1"/><path d="m458.61 604.99-4.0734 5.5721 6.7666 9.2551h8.1865l-10.88-14.827" fill="#231f20"/>
</g></g></svg>
