<?xml version="1.0" encoding="UTF-8"?>
<!DOCTYPE svg PUBLIC "-//W3C//DTD SVG 1.1//EN" "http://www.w3.org/Graphics/SVG/1.1/DTD/svg11.dtd">
<svg xmlns="http://www.w3.org/2000/svg" version="1.1" width="512px" height="512px" style="shape-rendering:geometricPrecision; text-rendering:geometricPrecision; image-rendering:optimizeQuality; fill-rule:evenodd; clip-rule:evenodd" xmlns:xlink="http://www.w3.org/1999/xlink">
<g><path style="opacity:0.964" fill="#000000" d="M 394.5,-0.5 C 398.167,-0.5 401.833,-0.5 405.5,-0.5C 440.41,32.9089 474.91,66.9089 509,101.5C 509.608,103.066 510.442,104.4 511.5,105.5C 511.5,109.167 511.5,112.833 511.5,116.5C 381.756,247.744 251.423,378.578 120.5,509C 118.934,509.608 117.6,510.442 116.5,511.5C 112.833,511.5 109.167,511.5 105.5,511.5C 70.5898,478.091 36.0898,444.091 2,409.5C 1.3918,407.934 0.558465,406.6 -0.5,405.5C -0.5,401.833 -0.5,398.167 -0.5,394.5C 129.244,263.256 259.577,132.422 390.5,2C 392.066,1.3918 393.4,0.558465 394.5,-0.5 Z M 399.5,36.5 C 424.632,61.1318 449.632,85.9651 474.5,111C 353.333,232.167 232.167,353.333 111,474.5C 86.1667,449.667 61.3333,424.833 36.5,400C 45.0142,391.319 53.6809,382.819 62.5,374.5C 76.0149,387.849 89.6815,401.015 103.5,414C 116.367,417.738 124.033,413.071 126.5,400C 126.274,396.988 125.441,394.155 124,391.5C 110.833,378.333 97.6667,365.167 84.5,352C 93.3333,343.167 102.167,334.333 111,325.5C 118.833,333.333 126.667,341.167 134.5,349C 145.613,353.853 153.446,350.686 158,339.5C 158.738,335.739 158.405,332.072 157,328.5C 149.35,320.016 141.516,311.682 133.5,303.5C 141.819,294.681 150.319,286.014 159,277.5C 171.833,290.333 184.667,303.167 197.5,316C 208.299,321.762 216.465,319.262 222,308.5C 223.041,303.56 222.374,298.894 220,294.5C 207.333,281.833 194.667,269.167 182,256.5C 181.333,255.833 181.333,255.167 182,254.5C 190.333,246.167 198.667,237.833 207,229.5C 214.863,237.698 223.03,245.531 231.5,253C 240.058,256.322 247.225,254.489 253,247.5C 255.509,240.757 254.843,234.424 251,228.5C 243.833,221.333 236.667,214.167 229.5,207C 238.014,198.319 246.681,189.819 255.5,181.5C 268.653,194.153 281.653,206.986 294.5,220C 308.234,225.874 316.567,221.541 319.5,207C 318.928,203.616 317.761,200.449 316,197.5C 303.167,184.667 290.333,171.833 277.5,159C 286.014,150.319 294.681,141.819 303.5,133.5C 311.682,141.516 320.016,149.35 328.5,157C 339.382,160.6 346.882,157.1 351,146.5C 351.701,143.072 351.368,139.738 350,136.5C 342.198,127.697 334.031,119.197 325.5,111C 334.333,102.167 343.167,93.3333 352,84.5C 365.167,97.6667 378.333,110.833 391.5,124C 402.096,128.691 409.929,125.858 415,115.5C 415.767,111.406 415.434,107.406 414,103.5C 401.015,89.6815 387.849,76.0149 374.5,62.5C 382.855,53.8127 391.188,45.1461 399.5,36.5 Z"/></g>
</svg>
