<?xml version="1.0" encoding="UTF-8"?>
<!DOCTYPE svg PUBLIC "-//W3C//DTD SVG 1.1//EN" "http://www.w3.org/Graphics/SVG/1.1/DTD/svg11.dtd">
<svg xmlns="http://www.w3.org/2000/svg" version="1.1" width="512px" height="512px" style="shape-rendering:geometricPrecision; text-rendering:geometricPrecision; image-rendering:optimizeQuality; fill-rule:evenodd; clip-rule:evenodd" xmlns:xlink="http://www.w3.org/1999/xlink">
<g><path style="opacity:1" fill="#fefefe" d="M -0.5,-0.5 C 131.5,-0.5 263.5,-0.5 395.5,-0.5C 394.4,0.558465 393.066,1.3918 391.5,2C 327.32,66.347 262.986,130.514 198.5,194.5C 155.041,150.541 111.374,106.707 67.5,63C 62.3333,61.5 60.5,63.3333 62,68.5C 105.319,112.653 148.819,156.653 192.5,200.5C 129.18,264.32 65.6803,327.986 2,391.5C 1.3918,393.066 0.558465,394.4 -0.5,395.5C -0.5,263.5 -0.5,131.5 -0.5,-0.5 Z"/></g>
<g><path style="opacity:1" fill="#010101" d="M 395.5,-0.5 C 398.167,-0.5 400.833,-0.5 403.5,-0.5C 405.019,0.409824 406.685,1.24316 408.5,2C 443.424,36.4231 477.758,71.2565 511.5,106.5C 511.5,109.167 511.5,111.833 511.5,114.5C 510.59,116.019 509.757,117.685 509,119.5C 444.653,183.68 380.486,248.014 316.5,312.5C 358.043,353.876 399.043,395.709 439.5,438C 437.991,441.603 435.657,442.603 432.5,441C 391.667,400.167 350.833,359.333 310,318.5C 246.5,382 183,445.5 119.5,509C 117.685,509.757 116.019,510.59 114.5,511.5C 111.833,511.5 109.167,511.5 106.5,511.5C 71.2565,477.758 36.4231,443.424 2,408.5C 1.24316,406.685 0.409824,405.019 -0.5,403.5C -0.5,400.833 -0.5,398.167 -0.5,395.5C 0.558465,394.4 1.3918,393.066 2,391.5C 65.6803,327.986 129.18,264.32 192.5,200.5C 148.819,156.653 105.319,112.653 62,68.5C 60.5,63.3333 62.3333,61.5 67.5,63C 111.374,106.707 155.041,150.541 198.5,194.5C 262.986,130.514 327.32,66.347 391.5,2C 393.066,1.3918 394.4,0.558465 395.5,-0.5 Z"/></g>
<g><path style="opacity:1" fill="#fdfdfd" d="M 403.5,-0.5 C 439.5,-0.5 475.5,-0.5 511.5,-0.5C 511.5,35.1667 511.5,70.8333 511.5,106.5C 477.758,71.2565 443.424,36.4231 408.5,2C 406.685,1.24316 405.019,0.409824 403.5,-0.5 Z"/></g>
<g><path style="opacity:1" fill="#fcfcfc" d="M 399.5,35.5 C 424.965,60.4651 450.299,85.6318 475.5,111C 415.333,171.167 355.167,231.333 295,291.5C 280.5,277 266,262.5 251.5,248C 255.179,242.591 255.346,237.091 252,231.5C 244.531,223.03 236.698,214.863 228.5,207C 237.348,197.986 246.348,189.152 255.5,180.5C 268.986,193.486 282.319,206.653 295.5,220C 308.64,224.764 316.307,220.264 318.5,206.5C 318.534,203.567 317.701,200.9 316,198.5C 302.833,185.333 289.667,172.167 276.5,159C 285.348,149.986 294.348,141.152 303.5,132.5C 311.319,139.819 318.986,147.319 326.5,155C 336.915,160.224 344.748,157.724 350,147.5C 350.667,144.167 350.667,140.833 350,137.5C 341.821,128.655 333.654,119.821 325.5,111C 333.457,102.042 341.79,93.3753 350.5,85C 351.5,84.3333 352.5,84.3333 353.5,85C 366.5,98 379.5,111 392.5,124C 401.949,127.63 409.115,125.13 414,116.5C 415.068,111.232 414.401,106.232 412,101.5C 398.986,88.6527 386.153,75.6527 373.5,62.5C 382.188,53.4794 390.855,44.4794 399.5,35.5 Z"/></g>
<g><path style="opacity:1" fill="#fefefe" d="M 511.5,114.5 C 511.5,246.833 511.5,379.167 511.5,511.5C 379.167,511.5 246.833,511.5 114.5,511.5C 116.019,510.59 117.685,509.757 119.5,509C 183,445.5 246.5,382 310,318.5C 350.833,359.333 391.667,400.167 432.5,441C 435.657,442.603 437.991,441.603 439.5,438C 399.043,395.709 358.043,353.876 316.5,312.5C 380.486,248.014 444.653,183.68 509,119.5C 509.757,117.685 510.59,116.019 511.5,114.5 Z"/></g>
<g><path style="opacity:1" fill="#fcfcfc" d="M 206.5,228.5 C 214.662,236.495 222.995,244.328 231.5,252C 236.255,254.632 241.255,255.298 246.5,254C 260.833,268.333 275.167,282.667 289.5,297C 230,356.5 170.5,416 111,475.5C 85.8333,450.333 60.6667,425.167 35.5,400C 44.3475,390.986 53.3475,382.152 62.5,373.5C 75.6527,386.153 88.6527,398.986 101.5,412C 108.404,415.583 115.07,415.25 121.5,411C 125.653,405.312 126.486,399.146 124,392.5C 110.458,379.292 97.2914,365.792 84.5,352C 92.6667,342.5 101.5,333.667 111,325.5C 119.821,333.654 128.655,341.821 137.5,350C 149.442,352.205 156.109,347.372 157.5,335.5C 157.705,332.205 156.872,329.205 155,326.5C 147.319,318.986 139.819,311.319 132.5,303.5C 141.152,294.348 149.986,285.348 159,276.5C 172.167,289.667 185.333,302.833 198.5,316C 205.264,319.511 211.764,319.011 218,314.5C 222.931,308.589 223.598,302.255 220,295.5C 206.653,282.319 193.486,268.986 180.5,255.5C 189.188,246.479 197.855,237.479 206.5,228.5 Z"/></g>
<g><path style="opacity:1" fill="#fdfdfd" d="M -0.5,403.5 C 0.409824,405.019 1.24316,406.685 2,408.5C 36.4231,443.424 71.2565,477.758 106.5,511.5C 70.8333,511.5 35.1667,511.5 -0.5,511.5C -0.5,475.5 -0.5,439.5 -0.5,403.5 Z"/></g>
</svg>
